<svg xmlns="http://www.w3.org/2000/svg" version="1.1" xmlns:xlink="http://www.w3.org/1999/xlink" width="512" height="512" x="0" y="0" viewBox="0 0 512 512" style="enable-background:new 0 0 512 512" xml:space="preserve" class=""><g><path fill="#f47c7c" d="M418.882 200.751 325.949 326.67l-125.198 92.212c-9.447-.907-18.471-2.101-27.423-4.038-33.347-7.18-65.674-24.426-114.762-73.514-78.088-78.077-78.088-204.687 0-282.764C93.602 23.529 138.405 4.213 184.217.618c46.08-3.616 93.17 8.674 132.347 36.881a200.567 200.567 0 0 1 24.766 21.067c21.139 21.139 36.376 39.178 47.44 55.516 21.531 31.791 27.3 57.195 30.112 86.669z" opacity="1" data-original="#f47c7c" class=""></path><path fill="#ee6161" d="M418.882 200.751 325.949 326.67l-125.198 92.212c-9.447-.907-18.471-2.101-27.423-4.038L382.352 205.82c3.224-3.225 4.832-7.747 4.306-12.28-2.318-19.697-6.49-37.911-16.607-57.948-2.236-4.419-7.046-6.943-11.96-6.305a52.377 52.377 0 0 1-12.331.155c-25.415-2.668-45.483-23.643-47.017-49.15-.422-7.17.587-14.041 2.771-20.367 1.494-4.316.258-9.076-3.204-12.043C265.241 19.593 225.126 3.842 184.217.628v-.01c46.08-3.616 93.17 8.674 132.347 36.881a200.567 200.567 0 0 1 24.766 21.067c21.139 21.139 36.376 39.178 47.44 55.516 21.531 31.791 27.3 57.195 30.112 86.669z" opacity="1" data-original="#ee6161" class=""></path><path fill="#ffe5c2" d="m387.965 231.675-187.21 187.21c38.091 3.628 77.023-3.648 111.74-21.811 11.798-6.173 26.272-3.76 35.687 5.655l103.139 103.139c8.174 8.174 21.426 8.174 29.599 0l24.948-24.948c8.174-8.174 8.174-21.426 0-29.599L402.73 348.182c-9.415-9.415-11.828-23.889-5.655-35.687 18.163-34.717-9.11-80.82-9.11-80.82z" opacity="1" data-original="#ffe5c2"></path><path fill="#fed2a4" d="m505.87 451.321-103.14-103.14c-9.415-9.415-11.828-23.889-5.655-35.687 18.163-34.717 25.439-73.649 21.811-111.74l-30.921 30.921c-1.647 27.875-9.097 55.471-22.359 80.819-6.173 11.798-3.76 26.272 5.655 35.687L474.4 451.321c8.174 8.174 8.174 21.426 0 29.599l-24.013 24.014.935.935c8.174 8.174 21.426 8.174 29.599 0l24.948-24.948c8.174-8.174 8.174-21.426.001-29.6z" opacity="1" data-original="#fed2a4"></path><path fill="#eaf9fa" d="M418.882 77.07c0 55.841-52.048 50.333-52.048 50.333-21.507-6.625-37.139-26.652-37.139-50.333 0-23.631 15.701-43.666 37.139-50.333 0 0 52.048-5.498 52.048 50.333z" opacity="1" data-original="#eaf9fa"></path><path fill="#838383" d="M375.444 91.71a7.725 7.725 0 0 1-5.463-13.19l13.826-13.826a7.727 7.727 0 0 1 10.927 10.927l-13.826 13.826a7.706 7.706 0 0 1-5.464 2.263z" opacity="1" data-original="#838383"></path><path fill="#cef1f4" d="M382.357 24.408c-5.404 0-10.616.817-15.524 2.329 21.507 6.626 37.139 26.653 37.139 50.333s-15.632 43.708-37.139 50.333a52.642 52.642 0 0 0 15.524 2.329c29.085 0 52.662-23.578 52.662-52.662s-23.577-52.662-52.662-52.662z" opacity="1" data-original="#cef1f4"></path></g></svg>