<svg xmlns="http://www.w3.org/2000/svg" version="1.1" xmlns:xlink="http://www.w3.org/1999/xlink" width="512" height="512" x="0" y="0" viewBox="0 0 512.003 512.003" style="enable-background:new 0 0 512 512" xml:space="preserve" class=""><g><path fill="#000000" d="M335.041 424.251a216.921 216.921 0 0 1-41.196 3.083c-27.549-.566-53.825-6.35-77.867-16.405-21.482-8.98-46.301-3.154-61.681 14.319l-67.543-67.543c17.473-15.38 23.299-40.199 14.319-61.681-10.055-24.042-15.839-50.318-16.405-77.867a216.921 216.921 0 0 1 3.083-41.196l146.944 100.345z" opacity="1" data-original="#f5ad60" class=""></path><path fill="#000000" d="M335.041 424.251a216.921 216.921 0 0 1-41.196 3.083c-27.549-.566-53.825-6.35-77.867-16.405-21.482-8.98-46.301-3.154-61.681 14.319l-33.771-33.771 114.17-114.17z" opacity="1" data-original="#dd8936" class=""></path><path fill="#000000" d="M77.923 512.003 0 434.08l183.367-161.418 51.329 4.645 4.645 51.329z" opacity="1" data-original="#dd8936" class=""></path><path fill="#000000" d="m77.923 512.003-38.961-38.961 195.734-195.735 4.645 51.329z" opacity="1" data-original="#ab6544" class=""></path><path fill="#000000" d="M335.041 424.251 87.752 176.962C104.871 77.309 190.629 1.267 295.712.015c60.04-.714 114.466 23.335 153.704 62.572s63.286 93.663 62.572 153.704c-1.252 105.083-77.294 190.841-176.947 207.96z" opacity="1" data-original="#ff4284" class=""></path><path fill="#000000" d="M335.041 424.251 211.397 300.607l238.019-238.02c39.237 39.237 63.286 93.663 62.572 153.704-1.252 105.083-77.294 190.841-176.947 207.96z" opacity="1" data-original="#e5006b" class=""></path><path fill="#000000" d="M295.607 159.932c-21.991 21.991-57.65 21.984-79.641-.007s-21.991-57.643 0-79.634 57.643-21.991 79.634 0 21.998 57.65.007 79.641z" opacity="1" data-original="#000000" class=""></path><path fill="#000000" d="M295.607 159.932c-21.991 21.991-57.65 21.984-79.641-.007L295.6 80.291c21.991 21.991 21.998 57.65.007 79.641z" opacity="1" data-original="#000000" class=""></path></g></svg>